<svg width="80" height="80" viewBox="0 0 80 80" fill="none" xmlns="http://www.w3.org/2000/svg">
<path d="M40 0C17.84 0 0 17.84 0 40C0 62.16 17.84 80 40 80C62.16 80 80 62.16 80 40C80 17.84 62.16 0 40 0ZM49.3333 14.4433C49.7667 14.43 50.16 14.8967 49.9033 15.37L39.7567 33.97C39.7053 34.0648 39.6795 34.1714 39.6817 34.2792C39.6838 34.387 39.7139 34.4924 39.769 34.5851C39.8241 34.6778 39.9023 34.7546 39.9959 34.8081C40.0896 34.8615 40.1955 34.8897 40.3033 34.89H57.8367C58.4033 34.89 58.6767 35.58 58.2633 35.9667L27.53 64.65C26.98 65.1633 26.1633 64.44 26.6033 63.83L41.15 43.76C41.2167 43.6671 41.2565 43.5576 41.2651 43.4435C41.2737 43.3295 41.2507 43.2153 41.1988 43.1134C41.1468 43.0115 41.0678 42.9259 40.9704 42.8659C40.873 42.8059 40.761 42.7739 40.6467 42.7733H22.09C21.9665 42.773 21.8459 42.7361 21.7435 42.6671C21.6411 42.5982 21.5614 42.5004 21.5146 42.3862C21.4679 42.2719 21.4561 42.1463 21.4808 42.0253C21.5055 41.9044 21.5655 41.7935 21.6533 41.7067L48.92 14.63C49.0293 14.5159 49.1788 14.4489 49.3367 14.4433H49.3333Z" fill="#4ECB71"/>
</svg>
