<svg width="80" height="80" viewBox="0 0 80 80" fill="none" xmlns="http://www.w3.org/2000/svg">
<path d="M52.2889 44.0222C51.0556 44.0258 49.8257 43.8917 48.6222 43.6222C49.3237 45.138 49.8602 46.7249 50.2222 48.3555H52.2889C54.5551 48.352 56.806 47.9843 58.9556 47.2666L56.8889 43.2444C55.3984 43.7133 53.8506 43.975 52.2889 44.0222V44.0222ZM40.8 39.7111L40 38.8666C38.265 37.1703 36.9269 35.1111 36.0816 32.8366C35.2364 30.5621 34.9049 28.1288 35.1111 25.7111C35.338 22.4727 36.53 19.3766 38.5333 16.8222L38.3556 20C38.3533 20.5563 38.5598 21.0932 38.9342 21.5046C39.3086 21.9161 39.8237 22.1721 40.3778 22.2222H40.5778C41.1341 22.2244 41.671 22.018 42.0824 21.6435C42.4939 21.2691 42.7499 20.754 42.8 20.2L43.5556 11.1111C43.5822 10.7892 43.5383 10.4654 43.427 10.1622C43.3157 9.85901 43.1396 9.58372 42.9111 9.35551C42.6679 9.15846 42.3857 9.01503 42.0832 8.93461C41.7806 8.85418 41.4645 8.83859 41.1556 8.88885L32.0667 9.66662C31.4773 9.71672 30.932 9.99889 30.5506 10.4511C30.1693 10.9032 29.9832 11.4884 30.0333 12.0777C30.0834 12.6671 30.3656 13.2124 30.8178 13.5938C31.2699 13.9751 31.8551 14.1612 32.4444 14.1111L35.3111 13.8666C32.6117 17.2444 31.0208 21.3731 30.7556 25.6888C30.5259 28.6465 30.9371 31.6189 31.9611 34.4032C32.9851 37.1875 34.5977 39.718 36.6889 41.8222L37.3778 42.6444C40.2175 45.579 41.8513 49.4732 41.9555 53.5555C42.074 55.4046 41.8786 57.2605 41.3778 59.0444L45.3778 61.0666C46.2383 58.5617 46.5785 55.9076 46.3778 53.2666C46.2413 48.2175 44.2566 43.394 40.8 39.7111V39.7111ZM72 39.8L69.3111 40C71.7647 36.8243 73.278 33.0239 73.6789 29.0309C74.0797 25.0379 73.3521 21.0125 71.5787 17.4125C69.8054 13.8125 67.0574 10.7824 63.6473 8.66664C60.2373 6.55092 56.302 5.43452 52.2889 5.4444C50.0221 5.44048 47.77 5.80833 45.6222 6.53329L47.6444 10.5333C50.1814 9.8148 52.8505 9.6947 55.4417 10.1824C58.0329 10.6702 60.4757 11.7524 62.5778 13.3441C64.68 14.9358 66.3842 16.9935 67.5564 19.3553C68.7286 21.7172 69.3369 24.3188 69.3333 26.9555C69.3326 30.7659 68.04 34.4635 65.6667 37.4444L65.8889 34.0222C65.9079 33.7304 65.8692 33.4376 65.775 33.1608C65.6809 32.8839 65.5331 32.6283 65.3401 32.4085C65.1472 32.1888 64.9129 32.0091 64.6505 31.8799C64.3882 31.7507 64.1029 31.6745 63.8111 31.6555C63.5193 31.6365 63.2266 31.6752 62.9497 31.7694C62.6728 31.8635 62.4172 32.0113 62.1975 32.2042C61.9777 32.3972 61.7981 32.6315 61.6689 32.8939C61.5397 33.1562 61.4634 33.4415 61.4444 33.7333L60.8222 42.8C60.8046 43.1215 60.8571 43.4431 60.976 43.7424C61.095 44.0417 61.2775 44.3116 61.5111 44.5333C61.7108 44.736 61.9499 44.8957 62.2135 45.0027C62.4772 45.1097 62.76 45.1617 63.0444 45.1555H63.2667L72.3333 44.2222C72.6257 44.1944 72.9097 44.109 73.1688 43.9708C73.428 43.8326 73.6572 43.6444 73.8432 43.4171C74.0292 43.1898 74.1682 42.9279 74.2524 42.6465C74.3365 42.3651 74.364 42.0698 74.3333 41.7777C74.2716 41.212 73.9952 40.6915 73.5611 40.3235C73.127 39.9555 72.5682 39.7681 72 39.8V39.8ZM9.04444 45.4222H9.22222L18.3111 44.6444C18.6029 44.6196 18.887 44.5376 19.1471 44.403C19.4073 44.2684 19.6383 44.0839 19.8271 43.86C20.0159 43.6361 20.1588 43.3772 20.2476 43.0981C20.3363 42.819 20.3692 42.5251 20.3444 42.2333C20.3196 41.9415 20.2376 41.6574 20.103 41.3973C19.9684 41.1371 19.7839 40.9061 19.56 40.7173C19.3361 40.5285 19.0772 40.3856 18.7981 40.2968C18.519 40.2081 18.2252 40.1752 17.9333 40.2L14.8444 40.4666C17.7539 38.3202 21.2733 37.1601 24.8889 37.1555C26.1069 37.1628 27.3208 37.2969 28.5111 37.5555C27.8131 36.0404 27.284 34.4531 26.9333 32.8222H24.8889C20.1476 32.8151 15.5374 34.3779 11.7778 37.2666L12.0444 34.3555C12.0687 34.0635 12.035 33.7696 11.9453 33.4906C11.8556 33.2117 11.7115 32.9532 11.5215 32.7302C11.3315 32.5071 11.0993 32.3238 10.8381 32.1909C10.577 32.0579 10.2922 31.9779 9.99999 31.9555C9.41375 31.9062 8.83189 32.0915 8.38199 32.4705C7.93209 32.8496 7.65088 33.3916 7.59999 33.9777L6.82222 43.0444C6.79762 43.3508 6.83687 43.659 6.93748 43.9495C7.03809 44.24 7.19788 44.5064 7.40674 44.732C7.61559 44.9576 7.86898 45.1373 8.15087 45.26C8.43276 45.3826 8.73703 45.4454 9.04444 45.4444V45.4222ZM40.9333 62.7333L31.8444 63.3333C31.2551 63.3716 30.7051 63.6425 30.3154 64.0863C29.9257 64.5301 29.7284 65.1106 29.7667 65.7C29.805 66.2893 30.0758 66.8393 30.5197 67.229C30.9635 67.6187 31.544 67.816 32.1333 67.7777L35.5556 67.5333C33.0388 69.556 30.0018 70.8264 26.7944 71.1981C23.587 71.5698 20.3399 71.0276 17.4273 69.634C14.5147 68.2404 12.0552 66.0521 10.3322 63.3215C8.6092 60.5908 7.6929 57.4288 7.68888 54.2C7.70489 52.6964 7.92162 51.2017 8.33333 49.7555L4.44444 47.6888C3.756 49.8061 3.40358 52.0181 3.39999 54.2444C3.42607 58.2689 4.5783 62.2057 6.72626 65.6092C8.87422 69.0126 11.9321 71.7468 15.5537 73.5021C19.1753 75.2574 23.216 75.9637 27.2184 75.5412C31.2207 75.1186 35.0248 73.584 38.2 71.1111L37.9333 73.7333C37.9025 74.0237 37.9293 74.3173 38.012 74.5974C38.0948 74.8774 38.2319 75.1384 38.4156 75.3654C38.5993 75.5925 38.8259 75.781 39.0825 75.9204C39.3391 76.0598 39.6207 76.1472 39.9111 76.1777H40.1555C40.7084 76.1805 41.2424 75.9771 41.6533 75.6073C42.0642 75.2375 42.3225 74.7278 42.3778 74.1777L43.3111 65.1555C43.3441 64.834 43.3066 64.5092 43.2012 64.2037C43.0957 63.8981 42.9249 63.6193 42.7007 63.3866C42.4764 63.1539 42.2041 62.9728 41.9027 62.8562C41.6013 62.7395 41.2781 62.69 40.9556 62.7111L40.9333 62.7333Z" fill="#00DF5E"/>
</svg>
