<svg width="80" height="80" viewBox="0 0 80 80" fill="none" xmlns="http://www.w3.org/2000/svg">
<g clip-path="url(#clip0_46303_756)">
<path d="M62.3297 36.529C59.8317 34.0571 59.1481 26.6946 62.3297 23.4342L63.2764 22.3296L64.223 23.2764C67.2733 25.6954 69.0087 28.4301 69.4294 31.4804C73.6725 30.1903 76.7892 31.0343 80 33.0581C77.9183 37.4076 74.7103 40.1353 67.5361 39.8421C61.0408 56.0212 47.0786 65.7165 26.3581 65.8742C15.4195 65.8742 7.58359 61.93 2.85031 53.7259C0.220311 48.8929 -0.336408 45.4109 0.168592 38.7378H7.11047V30.376H15.3141V22.1718H31.7222V14.1257H41.5039V30.376H49.708V38.7378C55.3314 38.9009 58.8247 38.5534 62.3295 36.529H62.3297ZM14.5255 32.2692H14.9987V38.2645H14.5253V32.2692H14.5255ZM13.4211 32.2692H14.0522V38.2645H13.4209V32.2692H13.4211ZM12.3167 32.2692H12.9478V38.2645H12.3166V32.2692H12.3167ZM11.2123 32.2692H11.8433V38.2645H11.2125V32.2692H11.2123ZM10.2656 32.2692H10.7391V38.2645H10.2656V32.2692ZM9.16125 32.2692H9.63469V38.2645H9.16125V32.2692ZM8.53015 31.7959V38.8956H15.6298V31.7959H8.53015V31.7959ZM22.7295 24.2229H23.2028V30.0604H22.7294V24.2229H22.7295ZM21.6252 24.2229H22.0984V30.0604H21.625V24.2229H21.6252ZM20.5206 24.2229H21.1519V30.0604H20.5206V24.2229ZM19.4162 24.2229H20.0475V30.0604H19.4162V24.2229ZM18.3119 24.2229H18.9431V30.0604H18.3119V24.2229ZM17.3653 24.2229H17.8387V30.0604H17.3653V24.2229ZM16.7342 23.5918V30.6915H23.8339V23.5918H16.7342ZM22.7295 32.2692H23.2028V38.2645H22.7294V32.2692H22.7295ZM21.6252 32.2692H22.0984V38.2645H21.625V32.2692H21.6252ZM20.5206 32.2692H21.1519V38.2645H20.5206V32.2692ZM19.4162 32.2692H20.0475V38.2645H19.4162V32.2692ZM18.3119 32.2692H18.9431V38.2645H18.3119V32.2692ZM17.3653 32.2692H17.8387V38.2645H17.3653V32.2692ZM16.7342 31.7959V38.8956H23.8339V31.7959H16.7342V31.7959ZM30.7758 32.2693H31.4069V38.2645H30.7756V32.2692L30.7758 32.2693ZM29.8291 32.2693H30.3025V38.2645H29.8291V32.2692V32.2693ZM28.7247 32.2693H29.1981V38.2645H28.7247V32.2692V32.2693ZM27.6203 32.2693H28.2516V38.2645H27.6203V32.2692V32.2693ZM26.5159 32.2693H27.1472V38.2645H26.5159V32.2692V32.2693ZM25.4116 32.2693H26.0427V38.2645H25.4116V32.2692V32.2693ZM24.9381 31.7959V38.8956H32.038V31.7959H24.9383H24.9381ZM30.7756 24.2229H31.4069V30.0604H30.7756V24.2229ZM29.8291 24.2229H30.3025V30.0604H29.8291V24.2229ZM28.7247 24.2229H29.1981V30.0604H28.7247V24.2229ZM27.6203 24.2229H28.2516V30.0604H27.6203V24.2229ZM26.5159 24.2229H27.1472V30.0604H26.5159V24.2229ZM25.4116 24.2229H26.0427V30.0604H25.4116V24.2229ZM24.9381 23.5918V30.6915H32.038V23.5918H24.9383H24.9381ZM38.9798 32.2692H39.6109V38.2645H38.9797V32.2692H38.9798ZM37.8755 32.2692H38.5064V38.2645H37.8755V32.2692ZM36.9287 32.2692H37.4022V38.2645H36.9287V32.2692ZM35.8244 32.2692H36.2978V38.2645H35.8244V32.2692ZM34.72 32.2692H35.3511V38.2645H34.72V32.2692ZM33.6156 32.2692H34.2467V38.2645H33.6155V32.2692H33.6156ZM33.1422 31.7959V38.8956H40.0842V31.7959H33.1422V31.7959ZM38.9797 24.2229H39.6109V30.0604H38.9797V24.2229ZM37.8755 24.2229H38.5064V30.0604H37.8755V24.2229ZM36.9287 24.2229H37.4022V30.0604H36.9287V24.2229ZM35.8244 24.2229H36.2978V30.0604H35.8244V24.2229ZM34.72 24.2229H35.3511V30.0604H34.72V24.2229ZM33.6156 24.2229H34.2467V30.0604H33.6155V24.2229H33.6156ZM33.1422 23.5918V30.6915H40.0842V23.5918H33.1422V23.5918ZM38.9797 16.0189H39.6109V21.8564H38.9797V16.0189ZM37.8755 16.0189H38.5064V21.8564H37.8755V16.0189ZM36.9287 16.0189H37.4022V21.8564H36.9287V16.0189ZM35.8244 16.0189H36.2978V21.8564H35.8244V16.0189ZM34.72 16.0189H35.3511V21.8564H34.72V16.0189ZM33.6156 16.0189H34.2467V21.8564H33.6155V16.0189H33.6156ZM33.1422 15.3878V22.4875H40.0842V15.3878H33.1422V15.3878ZM47.1839 32.2692H47.6572V38.2645H47.1838V32.2692H47.1839ZM46.0794 32.2692H46.7106V38.2645H46.0794V32.2692ZM44.975 32.2692H45.6063V38.2645H44.975V32.2692ZM44.0284 32.2692H44.5019V38.2645H44.0284V32.2692ZM42.9241 32.2692H43.3975V38.2645H42.9241V32.2692ZM41.8197 32.2692H42.4508V38.2645H41.8195V32.2692H41.8197ZM41.1884 31.7959V38.8956H48.2883V31.7959H41.1886H41.1884ZM23.3608 50.2549C22.8348 50.2549 22.3878 50.4654 22.0197 50.8862C21.6516 51.3068 21.4675 51.7801 21.4675 52.306C21.4675 52.832 21.6516 53.2789 22.0197 53.647C22.3878 54.0153 22.8348 54.1993 23.3608 54.1993C23.8867 54.1993 24.3336 54.0153 24.7017 53.647C25.0698 53.2787 25.2539 52.832 25.2539 52.306C25.2539 51.8853 25.175 51.5435 25.0173 51.2806C24.8595 51.0176 24.6228 50.7809 24.3073 50.5706C23.9919 50.3603 23.6762 50.2549 23.3608 50.2549V50.2549ZM23.3608 50.8862C23.5711 50.8862 23.7289 50.9387 23.8341 51.0439C23.6236 51.149 23.5184 51.3068 23.5184 51.5173C23.5184 51.8328 23.7289 51.9904 24.1497 51.9904C24.36 51.9904 24.5177 51.8853 24.6228 51.6748C24.7281 51.8853 24.7806 52.0956 24.7806 52.306C24.7806 53.2526 24.3072 53.7259 23.3608 53.7259C22.4144 53.7259 21.9408 53.2526 21.9408 52.306C21.9408 51.3593 22.4142 50.886 23.3608 50.886V50.8862ZM28.567 64.4543C24.2547 62.3507 21.2572 59.4057 19.5742 55.6192C17.7862 56.1451 15.63 56.4606 13.1056 56.5657H6.3214C11.5805 61.7196 18.2594 64.3492 26.3581 64.4543H28.567V64.4543Z" fill="#4ECB71"/>
</g>
<defs>
<clipPath id="clip0_46303_756">
<rect width="80" height="80" fill="white"/>
</clipPath>
</defs>
</svg>
