<svg width="72" height="80" viewBox="0 0 72 80" fill="none" xmlns="http://www.w3.org/2000/svg">
<g clip-path="url(#clip0_58802_766)">
<path d="M57.175 38.8414C62.5195 39.2081 66.8023 35.7575 67.9073 30.9995C65.9701 28.2545 61.9073 26.9509 58.3237 29.2253C55.1019 31.5066 54.2228 35.4948 57.175 38.8414V38.8414ZM42.7058 1.67688L23.3628 12.3602L27.8358 14.707L47.1622 4.05625L42.7058 1.67672V1.67688ZM24.3523 31.0609L43.2495 74.1828L48.2947 77.2819L27.1653 16.0808L22.1323 13.3823L2.0128 51.3444L5.68421 53.4048L23.0276 30.9017C23.407 30.4769 24.0417 30.4631 24.3523 31.0611V31.0609ZM58.1006 41.3142C52.605 38.2891 52.605 30.6847 58.1006 27.6595C63.5962 24.6344 70.5031 28.4363 70.5031 34.4869C70.5031 40.5375 63.5962 44.3395 58.1006 41.3142ZM64.3436 47.0036L71.3842 67.5302L49.8842 80L41.972 75.0891L27.8033 42.7869L5.87827 55.1388L0.00186157 51.8341L21.2639 11.8427L42.6756 0L49.3481 3.58391L56.1045 23.3373C43.0483 30.5358 49.6098 48.7862 64.3436 47.0036V47.0036Z" fill="#00DF5E"/>
</g>
<defs>
<clipPath id="clip0_58802_766">
<rect width="71.41" height="80" fill="white"/>
</clipPath>
</defs>
</svg>
