<svg width="80" height="80" viewBox="0 0 80 80" fill="none" xmlns="http://www.w3.org/2000/svg">
<g clip-path="url(#clip0_46304_756)">
<path d="M80 61.96C78.8356 62.4004 77.5504 62.3994 76.3867 61.9573C75.2231 61.5152 74.2615 60.6625 73.6833 59.56L62.1833 43.6567L60.5166 41.4334L47.1733 59.58C46.6299 60.6362 45.7205 61.4583 44.615 61.8927C43.5095 62.327 42.2837 62.3438 41.1666 61.94L58.36 38.8734L42.3666 18.0367C43.5166 17.6223 44.7743 17.6168 45.9279 18.0211C47.0814 18.4255 48.0604 19.215 48.7 20.2567L60.62 36.3567L72.6066 20.3234C73.1542 19.286 74.0639 18.486 75.1628 18.0755C76.2616 17.6649 77.473 17.6725 78.5666 18.0967L72.36 26.3334L63.9533 37.2767C63.7199 37.485 63.533 37.7402 63.4051 38.0257C63.2772 38.3112 63.2111 38.6205 63.2111 38.9334C63.2111 39.2462 63.2772 39.5555 63.4051 39.841C63.533 40.1265 63.7199 40.3818 63.9533 40.59L79.9666 61.9634L80 61.96ZM0.00664562 38.5867L1.40665 31.67C5.25331 17.9934 20.9333 12.3034 31.72 20.77C38.0366 25.7334 39.6133 32.76 39.3033 40.68H3.71998C3.14331 54.8234 13.35 63.3634 26.4 59C28.5155 58.2385 30.4091 56.9642 31.9112 55.2911C33.4132 53.618 34.4768 51.5985 35.0066 49.4134C35.6966 47.1934 36.8333 46.8134 38.92 47.4534C38.5723 50.1613 37.615 52.7551 36.1202 55.0398C34.6254 57.3244 32.632 59.2403 30.29 60.6434C26.4214 62.7595 21.9827 63.5982 17.6087 63.0396C13.2347 62.481 9.14931 60.5538 5.93665 57.5334C2.76008 53.958 0.840233 49.4417 0.469979 44.6734C0.469979 43.89 0.203312 43.1567 0.0233123 42.4534C0.00708572 41.1657 -0.000692225 39.8779 -2.10476e-05 38.59L0.00664562 38.5867ZM3.76331 37.6334H35.9433C35.7433 27.38 29.2733 20.1067 20.6433 20.04C11.0366 19.9067 4.16331 27.02 3.73998 37.5867L3.76331 37.6334Z" fill="#4ECB71"/>
</g>
<defs>
<clipPath id="clip0_46304_756">
<rect width="80" height="80" fill="white"/>
</clipPath>
</defs>
</svg>
