<svg width="80" height="80" viewBox="0 0 80 80" fill="none" xmlns="http://www.w3.org/2000/svg">
<g clip-path="url(#clip0_43105_804)">
<path d="M78.49 36.435L43.56 1.51003C43.0817 1.03154 42.5139 0.651967 41.8889 0.392996C41.2639 0.134026 40.594 0.000732422 39.9175 0.000732422C39.241 0.000732422 38.5711 0.134026 37.9461 0.392996C37.3211 0.651967 36.7533 1.03154 36.275 1.51003L29.025 8.76003L38.225 17.96C39.31 17.5896 40.4773 17.5316 41.5937 17.7928C42.7101 18.0539 43.7306 18.6237 44.5387 19.437C45.3468 20.2503 45.9099 21.2744 46.1639 22.3925C46.4179 23.5105 46.3524 24.6774 45.975 25.76L54.84 34.63C56.1516 34.1682 57.5813 34.1668 58.8938 34.6261C60.2062 35.0853 61.3232 35.9778 62.0607 37.1565C62.7982 38.3353 63.1124 39.7301 62.9514 41.1112C62.7904 42.4924 62.1639 43.7775 61.175 44.755C60.1739 45.7623 58.8542 46.3907 57.4413 46.5329C56.0283 46.6752 54.6098 46.3225 53.4281 45.535C52.2463 44.7476 51.3746 43.5742 50.9618 42.2155C50.5491 40.8567 50.6209 39.3967 51.165 38.085L42.9 29.815V51.58C44.1563 52.2019 45.1615 53.2355 45.7481 54.5087C46.3347 55.7818 46.4672 57.2176 46.1235 58.5766C45.7799 59.9356 44.9809 61.1357 43.8596 61.977C42.7384 62.8183 41.3627 63.2499 39.9618 63.1999C38.5609 63.1499 37.2195 62.6212 36.1611 61.7021C35.1028 60.7829 34.3914 59.5288 34.1456 58.1488C33.8998 56.7687 34.1344 55.3461 34.8103 54.118C35.4862 52.89 36.5626 51.9307 37.86 51.4V29.435C37.1114 29.1283 36.431 28.6764 35.8579 28.1055C35.2848 27.5346 34.8304 26.8558 34.5208 26.1084C34.2113 25.3611 34.0527 24.5598 34.0543 23.7508C34.0559 22.9419 34.2175 22.1412 34.53 21.395L25.465 12.325L1.51501 36.275C1.03652 36.7533 0.656942 37.3211 0.397971 37.9461C0.139 38.5711 0.00570679 39.241 0.00570679 39.9175C0.00570679 40.5941 0.139 41.2639 0.397971 41.8889C0.656942 42.5139 1.03652 43.0818 1.51501 43.56L36.445 78.49C36.9233 78.9685 37.4911 79.3481 38.1161 79.6071C38.7411 79.866 39.411 79.9993 40.0875 79.9993C40.764 79.9993 41.4339 79.866 42.0589 79.6071C42.6839 79.3481 43.2518 78.9685 43.73 78.49L78.495 43.725C79.4601 42.7585 80.0022 41.4484 80.0022 40.0825C80.0022 38.7166 79.4601 37.4066 78.495 36.44" fill="#00DF5E"/>
</g>
<defs>
<clipPath id="clip0_43105_804">
<rect width="80" height="80" fill="white"/>
</clipPath>
</defs>
</svg>
