<svg width="70" height="80" viewBox="0 0 70 80" fill="none" xmlns="http://www.w3.org/2000/svg">
<g clip-path="url(#clip0_58903_758)">
<path d="M42.4367 9.16996L58.8867 18.6666C59.6488 17.8666 60.5866 17.2547 61.6259 16.8794C62.6652 16.504 63.7776 16.3755 64.8751 16.5039C65.9726 16.6324 67.0252 17.0143 67.9497 17.6195C68.8743 18.2246 69.6454 19.0365 70.2023 19.991C70.7591 20.9454 71.0864 22.0162 71.1582 23.1189C71.2301 24.2215 71.0445 25.3258 70.6163 26.3444C70.188 27.3631 69.5287 28.2681 68.6905 28.9882C67.8524 29.7082 66.8582 30.2235 65.7867 30.4933L65.7367 30.5033V49.5033C66.8262 49.7638 67.8391 50.2772 68.6933 51.002C69.5475 51.7268 70.2189 52.6425 70.6533 53.6751C71.0877 54.7077 71.2728 55.8281 71.1935 56.9456C71.1143 58.063 70.773 59.1461 70.1973 60.1071C69.6216 61.0681 68.8276 61.88 67.8797 62.477C66.9319 63.074 65.8567 63.4394 64.7413 63.5436C63.6259 63.6477 62.5016 63.4877 61.4596 63.0765C60.4176 62.6653 59.487 62.0144 58.7433 61.1766L58.7367 61.17L42.3867 70.61C42.7402 71.6744 42.8377 72.8073 42.6713 73.9165C42.5049 75.0257 42.0793 76.0801 41.429 76.994C40.7787 77.9079 39.922 78.6555 38.9286 79.1763C37.9351 79.697 36.8329 79.9761 35.7113 79.9909C34.5898 80.0058 33.4805 79.756 32.4737 79.2617C31.4668 78.7675 30.5906 78.0427 29.9164 77.1464C29.2421 76.25 28.7887 75.2073 28.593 74.1029C28.3973 72.9984 28.4648 71.8634 28.79 70.79L28.7767 70.84L12.3067 61.36C11.542 62.158 10.6023 62.7674 9.56182 63.1401C8.52133 63.5128 7.40846 63.6386 6.31101 63.5077C5.21355 63.3767 4.16155 62.9925 3.23798 62.3854C2.31441 61.7783 1.54454 60.9649 0.989117 60.0094C0.43369 59.0538 0.107898 57.9823 0.0374428 56.8793C-0.0330128 55.7763 0.153795 54.6721 0.58313 53.6536C1.01246 52.6352 1.67258 51.7304 2.5114 51.0107C3.35022 50.2911 4.34479 49.7762 5.41666 49.5066L5.46666 49.4966V30.5C4.46752 30.2632 3.53129 29.8134 2.72193 29.1815C1.91257 28.5496 1.24918 27.7504 0.77708 26.8386C0.304981 25.9267 0.0353088 24.9237 -0.013509 23.8981C-0.0623269 22.8724 0.110861 21.8483 0.494219 20.8957C0.877576 19.9431 1.46207 19.0846 2.20775 18.3786C2.95343 17.6727 3.84272 17.1361 4.81485 16.8055C5.78698 16.4749 6.81904 16.358 7.84048 16.4629C8.86193 16.5678 9.84869 16.892 10.7333 17.4133L10.7 17.3966C11.3133 17.75 11.84 18.1666 12.2967 18.65L12.3 18.6533L28.76 9.15329C28.4425 8.0858 28.3793 6.9588 28.5756 5.86251C28.7718 4.76623 29.222 3.73113 29.8902 2.8401C30.5583 1.94906 31.4258 1.22685 32.4232 0.73129C33.4206 0.23573 34.5201 -0.01941 35.6338 -0.0137002C36.7475 -0.00799031 37.8444 0.258411 38.8367 0.764172C39.8289 1.26993 40.689 2.001 41.3479 2.89884C42.0069 3.79668 42.4465 4.83634 42.6315 5.93458C42.8165 7.03281 42.7418 8.15911 42.4133 9.22329L42.4267 9.17329L42.4367 9.16996ZM40.72 12.0933C40.66 12.1599 40.5966 12.2233 40.53 12.2833L40.5267 12.2866L62.0633 49.5866C62.15 49.5566 62.25 49.5333 62.3367 49.51V30.4866C61.4257 30.2588 60.5687 29.8534 59.8147 29.2937C59.0608 28.7339 58.4248 28.0308 57.9432 27.2246C57.4616 26.4185 57.144 25.5252 57.0084 24.5961C56.8729 23.6669 56.9221 22.7201 57.1533 21.81L57.1433 21.86L57.2067 21.62L40.72 12.0933ZM30.67 12.29L30.47 12.09L13.9833 21.5966C14.5043 23.4031 14.2899 25.3422 13.387 26.9913C12.4841 28.6404 10.9659 29.8656 9.16333 30.4L9.11333 30.4133L8.86 30.4833V49.51L9.14 49.5866L30.6767 12.2866L30.67 12.29ZM37.59 13.98C36.2748 14.3572 34.8794 14.3526 33.5667 13.9666L33.6167 13.98L12.0833 51.2766C13.0367 52.1966 13.7367 53.3733 14.0733 54.6966L14.0833 54.7466H57.12C57.46 53.37 58.1633 52.1866 59.1167 51.27L59.12 51.2666L37.6 13.98H37.59ZM40.8767 68.07L57.2667 58.61C57.2178 58.454 57.1756 58.2961 57.14 58.1366H14.0733L14.0033 58.4133L30.4667 67.92C31.7667 66.5766 33.5867 65.7433 35.6 65.7433C37.6867 65.7433 39.5633 66.6366 40.87 68.0633L40.8733 68.07H40.8767Z" fill="#00DF5E"/>
</g>
<defs>
<clipPath id="clip0_58903_758">
<rect width="70" height="80" fill="white"/>
</clipPath>
</defs>
</svg>
