<svg width="80" height="80" viewBox="0 0 80 80" fill="none" xmlns="http://www.w3.org/2000/svg">
<g clip-path="url(#clip0_46305_758)">
<path d="M57.31 31.85C53.0967 13.25 43.1366 7.13667 42.0666 4.8C41.1333 3.48667 40.3 1.62 39.6166 0C39.4966 1.65 39.4333 2.28333 37.8733 3.94667C35.4633 5.83333 23.08 16.22 22.0733 37.3467C21.1333 57.0533 36.3067 68.7967 38.3666 70.2933L38.6 70.46C39.029 73.6325 39.3957 76.8131 39.7 80H41.3033C41.683 76.5605 42.2506 73.1442 43.0033 69.7667C44.3933 68.78 45.0167 68.2233 45.8367 67.4567C49.7198 63.8643 52.8059 59.497 54.8954 54.6371C56.9848 49.7772 58.0311 44.533 57.9666 39.2433C58 36.53 57.6233 33.7033 57.31 31.85V31.85ZM39.5233 59.1667C39.5233 59.1667 39.5233 31.53 40.44 31.5333C41.15 31.5333 42.0733 67.1833 42.0733 67.1833C40.8033 67.0333 39.5233 61.3167 39.5233 59.1667Z" fill="#4ECB71"/>
</g>
<defs>
<clipPath id="clip0_46305_758">
<rect width="80" height="80" fill="white"/>
</clipPath>
</defs>
</svg>
