<svg width="80" height="80" viewBox="0 0 80 80" fill="none" xmlns="http://www.w3.org/2000/svg">
<path d="M47.2081 11.5504C45.7542 9.26191 46.2192 7.75285 47.0216 6.19488C47.7398 4.80019 48.0333 2.37644 45.4953 0.4691C47.832 -0.391056 51.5194 1.12973 51.5828 3.91519C50.2269 5.78082 46.5231 6.52223 47.2081 11.5504V11.5504ZM63.9848 62.9744C62.8505 66.6516 63.3677 68.6082 58.4339 76.2432C67.1574 70.3541 71.273 62.751 72.6313 54.1218C73.4841 57.72 73.5647 60.9839 73.2297 64.068C80.4584 54.5513 85.4114 35.3605 68.7517 16.0696C68.0816 24.5966 59.8349 31.3107 50.3241 28.678C66.6313 26.8804 67.6766 6.14441 53.6672 1.35629C53.9408 7.12504 46.07 5.23598 48.3847 12.9535C40.3678 8.41769 22.852 7.48551 15.8888 14.3669C12.2991 17.9144 9.84876 20.8483 5.36235 21.0422C1.65813 21.2022 -3.23343 27.2132 3.13094 30.2872C3.73876 32.8489 5.87501 34.3075 7.11376 34.5589C6.80548 39.1207 7.77594 36.7949 9.19782 34.8064C8.72001 40.5729 9.50751 38.4955 11.7359 35.5288C30.5906 31.7157 41.0031 47.0919 41.1209 56.536C41.0381 54.8225 38.2989 52.8297 36.8494 53.3786C35.87 55.4536 34.8028 57.2147 33.4858 58.0836C33.6234 56.7079 33.5295 55.3321 33.2795 53.9564C32.8452 55.62 32.0275 57.3475 30.7206 59.1566C28.1209 59.3018 24.4827 57.3682 25.5409 54.1629C27.0339 51.0457 24.1056 50.3975 21.7466 51.2899C19.9739 51.9605 18.7759 53.8177 18.6122 54.3952C18.0208 56.4782 18.2153 61.1286 22.26 64.2124C21.1997 64.4077 20.1111 64.5818 19.3709 65.0171C26.2511 69.1782 33.2738 67.7722 37.1844 66.2021C43.5872 63.6313 48.0033 56.5155 48.6942 51.0263C50.4714 58.7472 47.2875 67.3282 40.1508 71.9304C42.1899 72.1461 46.1809 70.7647 50.2622 69.3096C47.1769 73.1924 43.4889 76.8743 37.4475 79.7718C49.3472 78.7749 58.0511 72.8002 63.985 62.9744" fill="#4ECB71"/>
</svg>
