<svg width="80" height="80" viewBox="0 0 80 80" fill="none" xmlns="http://www.w3.org/2000/svg">
<g clip-path="url(#clip0_43105_812)">
<path d="M40 79.8533C38.86 79.8533 37.8 79.5567 36.81 79.0433L26.7133 73.25C25.1966 72.4433 25.9566 72.15 26.4133 72.0033C28.46 71.3433 28.84 71.1967 30.9666 70.02C31.1933 69.8733 31.5 69.9467 31.7266 70.0933L39.47 74.57C39.77 74.7167 40.1533 74.7167 40.38 74.57L70.67 57.6233C70.97 57.4767 71.1233 57.1833 71.1233 56.8167V22.9967C71.1233 22.63 70.9733 22.3367 70.67 22.19L40.38 5.32C40.0766 5.17333 39.6966 5.17333 39.47 5.32L9.17998 22.19C8.87665 22.3367 8.72331 22.7033 8.72331 22.9967V56.8167C8.72331 57.11 8.87665 57.4767 9.17998 57.6233L17.4533 62.2467C21.9333 64.4467 24.74 61.88 24.74 59.3133V25.9333C24.74 25.4933 25.12 25.0533 25.6533 25.0533H29.5233C29.98 25.0533 30.4333 25.42 30.4333 25.9333V59.31C30.4333 65.1067 27.17 68.48 21.4766 68.48C19.73 68.48 18.3633 68.48 14.4933 66.6467L6.52331 62.2467C5.56293 61.7186 4.76092 60.9437 4.20014 60.002C3.63935 59.0603 3.34011 57.986 3.33331 56.89V23.07C3.33331 20.87 4.54665 18.8167 6.52331 17.7167L36.8133 0.766662C37.7994 0.260949 38.8917 -0.00280762 40 -0.00280762C41.1082 -0.00280762 42.2005 0.260949 43.1866 0.766662L73.48 17.7133C75.4533 18.8133 76.6666 20.8667 76.6666 23.0667V56.8867C76.6666 59.0867 75.4533 61.14 73.48 62.2433L43.1866 79.1867C42.1809 79.6227 41.0962 79.8473 40 79.8467V79.8533ZM49.3366 56.5967C36.0533 56.5967 33.32 50.73 33.32 45.74C33.32 45.3 33.7 44.86 34.23 44.86H38.1766C38.6333 44.86 39.01 45.1533 39.01 45.5933C39.62 49.48 41.3666 51.3867 49.4133 51.3867C55.79 51.3867 58.5233 49.9933 58.5233 46.6933C58.5233 44.7867 57.7633 43.3933 47.82 42.44C39.5433 41.63 34.3833 39.8733 34.3833 33.49C34.3833 27.5467 39.5433 24.0233 48.2 24.0233C57.9166 24.0233 62.7 27.2533 63.3066 34.2967C63.2999 34.5351 63.2195 34.7656 63.0766 34.9567C62.9266 35.1033 62.7 35.25 62.47 35.25H58.5233C58.3316 35.2454 58.1466 35.1784 57.9962 35.0594C57.8459 34.9403 57.7384 34.7756 57.69 34.59C56.7766 30.5567 54.4233 29.2333 48.2 29.2333C41.2133 29.2333 40.38 31.58 40.38 33.34C40.38 35.47 41.3666 36.13 50.78 37.3033C60.1166 38.4767 64.52 40.1633 64.52 46.47C64.4433 52.93 58.98 56.5967 49.3366 56.5967V56.5967Z" fill="#00DF5E"/>
</g>
<defs>
<clipPath id="clip0_43105_812">
<rect width="80" height="80" fill="white"/>
</clipPath>
</defs>
</svg>
