<svg width="100" height="80" viewBox="0 0 100 80" fill="none" xmlns="http://www.w3.org/2000/svg">
<path d="M49.4219 70.625C49.0937 70.625 48.7656 70.5313 48.4688 70.375L45.4688 68.5938C45.0156 68.3438 45.2344 68.25 45.3906 68.2032C45.9844 68 46.1094 67.9532 46.75 67.5782C46.8125 67.5469 46.9063 67.5626 46.9688 67.5938L49.2812 68.9688C49.3594 69.0157 49.4844 69.0157 49.5625 68.9688L58.5938 63.75C58.6719 63.7032 58.7344 63.6094 58.7344 63.5V53.0782C58.7344 52.9688 58.6875 52.8751 58.5938 52.8282L49.5625 47.625C49.4844 47.5782 49.375 47.5782 49.2812 47.625L40.25 52.8282C40.1563 52.8751 40.1094 52.9844 40.1094 53.0782V63.5C40.1094 63.5938 40.1719 63.6875 40.25 63.7344L42.7187 65.1563C44.0625 65.8282 44.8906 65.0313 44.8906 64.2501V53.9532C44.8906 53.8125 45 53.6876 45.1562 53.6876H46.2969C46.4375 53.6876 46.5625 53.7969 46.5625 53.9532V64.2501C46.5625 66.0469 45.5937 67.0626 43.8906 67.0626C43.375 67.0626 42.9531 67.0626 41.8125 66.5001L39.4375 65.1407C38.8594 64.7969 38.4844 64.1719 38.4844 63.5V53.0782C38.4844 52.4063 38.8437 51.7657 39.4375 51.4376L48.4688 46.2188C49.0469 45.8907 49.7969 45.8907 50.3594 46.2188L59.3906 51.4376C59.9688 51.7813 60.3438 52.4063 60.3438 53.0782V63.5C60.3438 64.1719 59.9844 64.8125 59.3906 65.1407L50.3594 70.3594C50.0937 70.5313 49.7656 70.625 49.4219 70.625V70.625ZM56.7188 60.3438C56.7188 58.3907 55.4062 57.875 52.625 57.5C49.8125 57.125 49.5312 56.9376 49.5312 56.2813C49.5312 55.7344 49.7656 55.0157 51.8437 55.0157C53.7031 55.0157 54.3906 55.4219 54.6719 56.6719C54.7031 56.7969 54.7969 56.875 54.9219 56.875H56.0938C56.1719 56.875 56.2344 56.8438 56.2813 56.7969C56.3281 56.7344 56.3594 56.6719 56.3438 56.5938C56.1563 54.4376 54.7344 53.4375 51.8437 53.4375C49.2656 53.4375 47.7344 54.5313 47.7344 56.3438C47.7344 58.3282 49.2656 58.8594 51.7344 59.1094C54.6875 59.4063 54.9219 59.8282 54.9219 60.4063C54.9219 61.4219 54.1094 61.8438 52.2031 61.8438C49.8125 61.8438 49.2812 61.25 49.1094 60.0625C49.0937 59.9375 48.9844 59.8438 48.8438 59.8438H47.6719C47.5313 59.8438 47.4062 59.9532 47.4062 60.1094C47.4062 61.6251 48.2344 63.4375 52.1875 63.4375C55.0781 63.4375 56.7188 62.3126 56.7188 60.3438V60.3438ZM65.2344 52.5157C65.2344 53.4688 64.4531 54.2501 63.5 54.2501C62.5469 54.2501 61.7656 53.4688 61.7656 52.5157C61.7656 51.5313 62.5781 50.7813 63.5 50.7813C64.4375 50.7657 65.2344 51.5313 65.2344 52.5157ZM64.9531 52.5157C64.9531 51.7032 64.2969 51.0625 63.4844 51.0625C62.6875 51.0625 62.0312 51.7032 62.0312 52.5157C62.0312 53.3282 62.6875 53.9844 63.4844 53.9844C64.2969 53.9688 64.9531 53.3126 64.9531 52.5157ZM64.25 53.4844H63.8438C63.8281 53.3907 63.7656 52.8907 63.7656 52.875C63.7344 52.7657 63.7031 52.7032 63.5625 52.7032H63.2188V53.4844H62.8438V51.5313H63.5156C63.75 51.5313 64.2031 51.5313 64.2031 52.0469C64.2031 52.4063 63.9687 52.4844 63.8281 52.5313C64.0938 52.5469 64.1094 52.7188 64.1563 52.9688C64.1719 53.125 64.2031 53.3907 64.25 53.4844V53.4844ZM63.8125 52.1094C63.8125 51.8438 63.625 51.8438 63.5313 51.8438H63.2188V52.3907H63.5156C63.7656 52.3907 63.8125 52.2188 63.8125 52.1094V52.1094ZM21.4531 29.8438C21.4531 29.4219 21.2344 29.0469 20.875 28.8438L11.2969 23.3282C11.1406 23.2344 10.9531 23.1876 10.7656 23.1719H10.6719C10.4844 23.1719 10.3125 23.2344 10.1406 23.3282L0.578125 28.8438C0.21875 29.0469 0 29.4375 0 29.8438L0.015625 44.6875C0.015625 44.8907 0.125 45.0782 0.296875 45.1876C0.46875 45.2969 0.6875 45.2969 0.875 45.1876L6.5625 41.9219C6.92187 41.7032 7.14063 41.3282 7.14063 40.9219V33.9844C7.14063 33.5782 7.35938 33.1876 7.71875 32.9844L10.1406 31.5938C10.3281 31.4844 10.5156 31.4375 10.7187 31.4375C10.9219 31.4375 11.125 31.4844 11.2969 31.5938L13.7188 32.9844C14.0781 33.1876 14.2969 33.5782 14.2969 33.9844V40.9219C14.2969 41.3282 14.5156 41.7188 14.875 41.9219L20.5625 45.1876C20.7344 45.2969 20.9688 45.2969 21.1406 45.1876C21.3125 45.0938 21.4219 44.8907 21.4219 44.6875L21.4531 29.8438ZM73.8281 13.6407V41.2032C73.8281 41.6094 73.6094 42.0001 73.25 42.2032L63.6719 47.7344C63.3125 47.9375 62.875 47.9375 62.5156 47.7344L52.9375 42.2032C52.5781 42.0001 52.3594 41.6094 52.3594 41.2032V30.1407C52.3594 29.7344 52.5781 29.3438 52.9375 29.1407L62.5156 23.6094C62.875 23.4063 63.3125 23.4063 63.6719 23.6094L66.0625 24.9844C66.3281 25.1407 66.6719 24.9375 66.6719 24.6407V9.95318C66.6719 9.51568 67.1406 9.23443 67.5313 9.45318L73.2344 12.6407C73.5938 12.8282 73.8281 13.2188 73.8281 13.6407V13.6407ZM66.6406 33.7813C66.6406 33.6719 66.5781 33.5782 66.5 33.5313L63.2188 31.625C63.125 31.5782 63.0156 31.5782 62.9219 31.625L59.6406 33.5313C59.5469 33.5782 59.5 33.6719 59.5 33.7813V37.5782C59.5 37.6875 59.5625 37.7813 59.6406 37.8282L62.9219 39.7188C63.0156 39.7657 63.125 39.7657 63.2031 39.7188L66.4844 37.8282C66.5781 37.7813 66.625 37.6875 66.625 37.5782V33.7813H66.6406ZM99.4219 33.6719C99.7812 33.4688 100 33.0782 100 32.6719V30C100 29.5938 99.7812 29.2032 99.4219 29.0001L89.9063 23.4688C89.5469 23.2657 89.1094 23.2657 88.75 23.4688L79.1719 29.0001C78.8125 29.2032 78.5938 29.5938 78.5938 30V41.0625C78.5938 41.4844 78.8125 41.8594 79.1719 42.0626L88.6875 47.4844C89.0312 47.6875 89.4688 47.6875 89.8281 47.4844L95.5781 44.2813C95.9688 44.0625 95.9688 43.5 95.5781 43.2813L85.9375 37.7501C85.75 37.6407 85.6406 37.4532 85.6406 37.25V33.7813C85.6406 33.5782 85.75 33.3907 85.9375 33.2813L88.9375 31.5469C89.1094 31.4375 89.3438 31.4375 89.5156 31.5469L92.5156 33.2813C92.6875 33.3907 92.8125 33.5782 92.8125 33.7813V36.5001C92.8125 36.9376 93.2969 37.2188 93.6875 37.0001L99.4219 33.6719V33.6719ZM87.3438 34.2188C87.2812 34.2657 87.2344 34.3282 87.2344 34.4063V36.5313C87.2344 36.6094 87.2812 36.6875 87.3438 36.7188L89.1875 37.7813C89.25 37.8282 89.3438 37.8282 89.4063 37.7813L91.25 36.7188C91.3125 36.6719 91.3594 36.6094 91.3594 36.5313V34.4063C91.3594 34.3282 91.3125 34.25 91.25 34.2188L89.4063 33.1563C89.3438 33.1094 89.25 33.1094 89.1875 33.1563L87.3438 34.2188ZM47.625 41.0157V30.0157C47.625 29.6094 47.375 29.2188 47.0156 29.0157L37.4688 23.5157C37.1406 23.3282 36.6875 23.2969 36.3125 23.5157L26.7656 29.0157C26.4063 29.2188 26.1562 29.5938 26.1562 30.0157V41.0157C26.1562 41.4532 26.4531 41.8282 26.7812 42.0157L36.3438 47.5157C36.7188 47.7344 37.1562 47.7188 37.5 47.5157L47.0312 42.0157C47.3125 41.8594 47.5156 41.5938 47.5938 41.2813C47.6094 41.2032 47.625 41.1094 47.625 41.0157ZM36.0156 21.5001L35.8906 21.5782H36.0625L36.0156 21.5001V21.5001ZM47.9219 41.8438L47.8594 41.7344V41.875L47.9219 41.8438Z" fill="#4ECB71"/>
</svg>
