<svg width="80" height="80" viewBox="0 0 80 80" fill="none" xmlns="http://www.w3.org/2000/svg">
<path d="M57.0975 0C53.9864 0.0236723 50.8934 0.474553 47.905 1.34L47.6975 1.4075C45.8174 1.08176 43.9153 0.898736 42.0075 0.86C38.075 0.7925 34.7 1.7425 31.98 3.3325C29.2975 2.41 23.7375 0.7925 17.8775 1.12C13.805 1.34 9.35001 2.5775 6.04001 6.0675C2.76001 9.545 1.01751 14.935 1.38001 22.28C1.48251 24.2975 2.05751 27.59 3.02001 31.8725C3.97001 36.145 5.31251 41.145 6.99251 45.715C8.67251 50.2725 10.505 54.3725 13.3725 57.1575C14.8025 58.55 16.7825 59.7375 19.1125 59.635C20.7425 59.5675 22.2125 58.8525 23.49 57.7975C24.1125 58.6175 24.78 58.9675 25.3775 59.295C26.1475 59.7125 26.875 59.9975 27.645 60.1825C29.025 60.5325 31.3825 60.99 34.1425 60.52C35.1475 60.3391 36.1271 60.0378 37.06 59.6225L37.1775 62.89C37.32 66.34 37.415 69.53 38.44 72.33C38.61 72.7875 39.0675 75.13 40.8625 77.2125C42.6725 79.295 46.185 80.585 50.21 79.725C53.0375 79.125 56.6425 78.0325 59.04 74.6225C61.41 71.2625 62.4775 66.4325 62.6875 58.5925C62.7375 58.1625 62.805 57.8125 62.8675 57.4725L63.4275 57.525H63.495C66.515 57.655 69.7975 57.225 72.545 55.9475C74.965 54.8275 76.8025 53.695 78.1425 51.6775C78.47 51.18 78.845 50.57 78.94 49.5275C79.0425 48.5 78.4425 46.87 77.4525 46.1175C75.475 44.6075 74.225 45.18 72.8825 45.4675C71.5677 45.7508 70.2295 45.9115 68.885 45.9475C72.7375 39.465 75.4975 32.565 77.075 26.4675C78.0125 22.86 78.535 19.54 78.5725 16.6375C78.625 13.735 78.38 11.17 76.645 8.945C71.2025 2.005 63.5575 0.075 57.6475 0.0125H57.1L57.0975 0ZM56.94 2.1375C62.5275 2.085 69.6725 3.6475 74.8025 10.2075C75.9625 11.68 76.3025 13.8275 76.2625 16.485C76.2225 19.1425 75.73 22.305 74.83 25.7825C73.1 32.53 69.8025 40.365 65.1825 47.4125C65.3415 47.5323 65.5165 47.6291 65.7025 47.7C66.665 48.1025 68.865 48.44 73.265 47.5425C74.3725 47.305 75.1825 47.1525 76.0275 47.79C76.2326 47.9629 76.3945 48.1814 76.5004 48.4279C76.6063 48.6744 76.6533 48.9422 76.6375 49.21C76.592 49.616 76.4393 50.0025 76.195 50.33C75.3475 51.6025 73.6725 52.8175 71.5225 53.82C69.6225 54.7025 66.885 55.16 64.48 55.1875C63.2575 55.2 62.1375 55.1075 61.1825 54.8075L61.1325 54.7975C60.765 58.325 59.9225 65.305 59.3725 68.48C58.9325 71.0425 58.1625 73.09 56.6925 74.6125C55.22 76.15 53.15 77.06 50.35 77.66C46.8875 78.4025 44.3725 77.6075 42.7475 76.24C41.1225 74.8725 40.3775 73.05 39.935 71.9425C39.625 71.175 39.4675 70.185 39.3125 68.855C39.1423 67.2671 39.0289 65.6735 38.9725 64.0775C38.87 61.2775 38.83 58.4775 38.87 55.665C37.4255 56.9894 35.6311 57.871 33.7 58.205C31.3975 58.595 29.3525 58.205 28.13 57.905C27.5269 57.7512 26.945 57.5236 26.3975 57.2275C25.825 56.9275 25.29 56.59 24.9275 55.91C24.7186 55.5206 24.654 55.0699 24.745 54.6375C24.8531 54.1983 25.1058 53.8082 25.4625 53.53C26.125 52.9925 27 52.6975 28.3125 52.4225C30.71 51.925 31.555 51.59 32.0625 51.1825C32.4925 50.845 32.99 50.1425 33.845 49.1125C33.845 49.075 33.845 49.0225 33.8325 48.9825C32.2833 48.9353 30.7668 48.5252 29.405 47.785C28.9125 48.305 26.345 51.015 23.235 54.765C21.9325 56.325 20.4875 57.225 18.9525 57.2925C17.43 57.355 16.045 56.59 14.875 55.455C12.5325 53.175 10.655 49.255 9.02751 44.8275C7.40001 40.4 6.08501 35.4675 5.13501 31.275C4.19751 27.0675 3.63751 23.6825 3.55751 22.055C3.20751 15.115 4.83501 10.4425 7.62001 7.485C10.405 4.5275 14.2225 3.4225 17.9475 3.2025C24.6275 2.825 30.98 5.155 32.2575 5.65C34.73 3.97 37.92 2.93 41.905 2.9925C43.7935 3.02027 45.6725 3.26522 47.505 3.7225L47.5725 3.6825C48.3788 3.40327 49.2 3.16957 50.0325 2.9825C52.2951 2.45151 54.6086 2.16735 56.9325 2.135L56.94 2.1375ZM57.4475 4.3625H56.955C55.055 4.385 53.1375 4.61 51.2775 5.0125C55.43 6.85 58.5675 9.6725 60.78 12.5125C62.3175 14.465 63.58 16.6125 64.5425 18.905C64.9225 19.7925 65.17 20.5325 65.3 21.105C65.3775 21.3925 65.4175 21.6375 65.4425 21.885C65.4425 22.015 65.455 22.1475 65.39 22.3675C65.39 22.38 65.3775 22.4075 65.3775 22.42C65.485 25.3375 64.755 27.3125 64.66 30.1C64.5975 32.12 65.1175 34.49 65.2475 37.08C65.365 39.5125 65.0675 42.1825 63.49 44.8125C63.62 44.97 63.7375 45.125 63.8675 45.295C68.0475 38.705 71.0675 31.4275 72.67 25.215C73.53 21.8675 73.9825 18.835 74.0225 16.4425C74.0625 14.045 73.62 12.3 73.045 11.5725C68.565 5.855 62.5125 4.395 57.445 4.36L57.4475 4.3625ZM41.47 5.22C37.54 5.2325 34.7125 6.42 32.5675 8.2025C30.35 10.0525 28.8675 12.565 27.905 15.155C26.745 18.215 26.3425 21.1825 26.185 23.2025L26.2375 23.175C27.6255 22.3978 29.116 21.8196 30.665 21.4575C32.3325 21.065 34.1425 20.9475 35.7675 21.5875C37.41 22.21 38.75 23.7075 39.245 25.96C41.5925 36.82 38.5175 40.8575 37.385 43.9025C36.955 45.01 36.5775 46.13 36.2775 47.275C36.42 47.2475 36.565 47.2075 36.7075 47.195C37.515 47.1325 38.1375 47.3925 38.505 47.5475C39.6525 48.0275 40.4325 49.0175 40.8625 50.15C40.9681 50.4591 41.0459 50.7771 41.095 51.1C41.1381 51.2351 41.1608 51.3758 41.1625 51.5175C41.0313 55.67 41.0438 59.8258 41.2 63.9775C41.28 65.775 41.3975 67.35 41.54 68.6C41.6825 69.8375 41.8775 70.7875 42.01 71.1125C42.4375 72.18 43.0625 73.5725 44.1975 74.5225C45.3175 75.475 46.93 76.1 49.8875 75.475C52.45 74.915 54.0275 74.1575 55.08 73.065C56.1375 71.9575 56.76 70.435 57.1625 68.105C57.775 64.6025 58.985 54.445 59.13 52.545C59.0675 51.0975 59.2725 49.9925 59.7425 49.145C60.21 48.285 60.94 47.7525 61.58 47.465C61.89 47.3225 62.19 47.2325 62.4375 47.1525C62.1756 46.7871 61.9064 46.4271 61.63 46.0725C60.7175 44.9653 59.9675 43.7338 59.4025 42.415C59.1427 41.862 58.8557 41.3222 58.5425 40.7975C58.1025 40.005 57.5425 39 56.955 37.8675C55.7825 35.6275 54.5075 32.895 53.8425 30.2375C53.18 27.58 53.09 24.835 54.7825 22.9075C56.28 21.1875 58.9225 20.475 62.865 20.8775C62.7475 20.525 62.685 20.225 62.4875 19.77C61.5908 17.6639 60.4217 15.6845 59.01 13.8825C55.6625 9.6 50.2325 5.3525 41.8625 5.21L41.47 5.22ZM19.3375 5.39C18.9164 5.38955 18.4953 5.4029 18.075 5.43C14.7025 5.6275 11.525 6.6 9.24501 9.01C6.96751 11.4325 5.47251 15.3775 5.79501 21.9275C5.86251 23.1775 6.39501 26.64 7.31751 30.7675C8.24501 34.8975 9.55751 39.755 11.135 44.05C12.7075 48.3325 14.6125 52.07 16.435 53.84C17.345 54.7125 18.1375 55.0775 18.855 55.0525C19.5725 55.0125 20.445 54.595 21.5125 53.32C23.4497 50.9825 25.4608 48.7072 27.5425 46.4975C26.0661 45.2123 24.9369 43.5762 24.2588 41.7399C23.5808 39.9037 23.3757 37.9263 23.6625 35.99C24 33.53 24.0525 31.2225 24 29.4C23.9625 27.63 23.8425 26.46 23.8425 25.7175V25.6375L23.83 25.615C23.83 21.7725 24.51 17.9725 25.81 14.365C26.7475 11.875 28.13 9.365 30.21 7.3175C28.1675 6.64 24.5325 5.6275 20.6025 5.43C20.1822 5.40297 19.7612 5.38963 19.34 5.39H19.3375ZM60.6625 22.9925C58.4 23.0325 57.135 23.62 56.46 24.3725C55.52 25.455 55.43 27.355 56.0175 29.7C56.6 32.0425 57.815 34.66 58.9475 36.8375C59.5075 37.93 60.055 38.9075 60.495 39.7C60.9525 40.5075 61.2775 41.0675 61.4725 41.5625C61.655 42.005 61.865 42.395 62.0725 42.76C62.945 40.91 63.1025 39.1 63.01 37.2C62.8925 34.8575 62.3475 32.46 62.4375 30.04C62.53 27.2 63.09 25.35 63.13 23.1625C62.3135 23.0545 61.4911 22.9978 60.6675 22.9925H60.6625ZM33.2175 23.3875C32.5275 23.3875 31.8375 23.4775 31.16 23.635C29.8173 23.9579 28.5247 24.4617 27.3175 25.1325C26.9113 25.3523 26.5241 25.6057 26.16 25.89L26.08 25.9525C26.1075 26.45 26.1975 27.62 26.2375 29.365C26.2775 31.265 26.2375 33.685 25.875 36.305C25.0675 42.0075 29.2075 46.7225 34.065 46.735C34.3525 45.5625 34.8175 44.375 35.2875 43.1275C36.64 39.48 39.2975 36.825 37.0575 26.435C36.695 24.7425 35.965 24.0525 34.96 23.6625C34.4008 23.4657 33.8101 23.3733 33.2175 23.39V23.3875ZM59.61 24.0625H59.78C59.9875 24.075 60.1975 24.09 60.3775 24.14C60.54 24.1718 60.6952 24.2337 60.835 24.3225C60.9 24.3615 60.9557 24.4141 60.9985 24.4766C61.0412 24.5392 61.0699 24.6103 61.0825 24.685V24.7125C61.0819 24.8724 61.0415 25.0296 60.965 25.17C60.8666 25.3496 60.7447 25.5152 60.6025 25.6625C60.2663 26.0384 59.8106 26.2865 59.3125 26.365C58.8306 26.4268 58.3429 26.3065 57.945 26.0275C57.7874 25.9132 57.6432 25.7815 57.515 25.635C57.4025 25.5166 57.3292 25.3665 57.305 25.205C57.2904 25.0509 57.3371 24.8973 57.435 24.7775C57.5508 24.6592 57.683 24.5582 57.8275 24.4775C58.15 24.295 58.58 24.165 59.0775 24.0975C59.2575 24.075 59.44 24.06 59.61 24.0475V24.0625ZM33.54 24.6225C33.71 24.6225 33.9075 24.635 34.09 24.66C34.61 24.74 35.0525 24.87 35.4025 25.0775C35.5741 25.1611 35.7252 25.2814 35.845 25.43C35.9748 25.5867 36.0401 25.7869 36.0275 25.99C35.9919 26.1825 35.9056 26.362 35.7775 26.51C35.6404 26.677 35.4785 26.822 35.2975 26.94C34.8643 27.2512 34.329 27.3862 33.8 27.3175C33.2641 27.2313 32.7732 26.9661 32.4075 26.565C32.2539 26.3999 32.122 26.2159 32.015 26.0175C31.8983 25.8405 31.8479 25.628 31.8725 25.4175C31.925 25.0675 32.225 24.87 32.5125 24.7675C32.84 24.66 33.19 24.625 33.54 24.6375V24.6225ZM63.7375 49.1H63.725C63.245 49.2825 62.8425 49.35 62.5025 49.5075C62.1584 49.6373 61.8756 49.8916 61.71 50.22C61.4875 50.6 61.32 51.2775 61.37 52.4325C61.5204 52.5407 61.6889 52.6211 61.8675 52.67C62.4275 52.84 63.39 52.9575 64.4575 52.9425C66.58 52.915 69.1975 52.4225 70.59 51.77C71.7281 51.2426 72.7846 50.5548 73.7275 49.7275C69.08 50.6775 66.465 50.43 64.8475 49.7675C64.4501 49.5956 64.0776 49.3711 63.74 49.1H63.7375ZM36.9675 49.4125H36.9C36.72 49.425 36.47 49.4925 35.9625 50.04C34.8025 51.34 34.4 52.16 33.45 52.9175C32.4875 53.685 31.25 54.09 28.7625 54.5975C28.2319 54.6925 27.7154 54.8537 27.225 55.0775C27.315 55.1575 27.315 55.185 27.4575 55.2475C27.825 55.4575 28.29 55.6275 28.67 55.73C29.7375 55.99 31.48 56.3025 33.3175 55.99C35.14 55.6775 37.04 54.8025 38.67 52.5275C38.9575 52.1375 38.98 51.55 38.7475 50.925C38.515 50.315 38.005 49.7675 37.655 49.625C37.436 49.5231 37.2037 49.4524 36.965 49.415L36.9675 49.4125Z" fill="#4ECB71"/>
</svg>
