<svg width="80" height="80" viewBox="0 0 80 80" fill="none" xmlns="http://www.w3.org/2000/svg">
<g clip-path="url(#clip0_46311_763)">
<path d="M72.69 60.95L45.1767 2.52004C44.8347 1.80042 44.3042 1.18681 43.6416 0.744304C42.9791 0.301803 42.2091 0.0469229 41.4133 0.00670923C40.6165 -0.046318 39.8204 0.120178 39.1116 0.488086C38.4028 0.855994 37.8085 1.41122 37.3933 2.09338L7.55333 50.4267C7.10043 51.1566 6.86491 52.0005 6.87436 52.8595C6.8838 53.7184 7.13782 54.5569 7.60666 55.2767L22.1933 77.87C22.7455 78.7171 23.5564 79.3632 24.5053 79.7122C25.4543 80.0611 26.4906 80.0943 27.46 79.8067L69.8033 67.2834C71.1 66.9 72.16 65.9834 72.7133 64.7667C73.2667 63.55 73.26 62.1567 72.69 60.95V60.95ZM66.53 63.4567L30.6 74.08C30.351 74.1558 30.0867 74.1658 29.8327 74.109C29.5788 74.0522 29.3439 73.9306 29.1509 73.7561C28.9578 73.5815 28.8133 73.36 28.7314 73.113C28.6495 72.866 28.6329 72.602 28.6833 72.3467L41.5167 10.8867C41.7567 9.73671 43.3467 9.55338 43.8467 10.62L67.61 61.08C67.715 61.305 67.77 61.5501 67.7711 61.7984C67.7723 62.0467 67.7195 62.2923 67.6165 62.5183C67.5136 62.7442 67.3628 62.9451 67.1746 63.1071C66.9865 63.2691 66.7654 63.3884 66.5267 63.4567H66.53Z" fill="#4ECB71"/>
</g>
<defs>
<clipPath id="clip0_46311_763">
<rect width="80" height="80" fill="white"/>
</clipPath>
</defs>
</svg>
