<svg width="80" height="80" viewBox="0 0 80 80" fill="none" xmlns="http://www.w3.org/2000/svg">
<path d="M21.19 30C12.4 32.2667 6.66669 36.15 6.66669 40.5833C6.66669 47.6067 21.35 53.3333 39.5 53.3333C41.9667 53.3333 43.7 53.2033 46 53.01" stroke="#00DF5E" stroke-width="6.66667" stroke-linecap="round" stroke-linejoin="round"/>
<path d="M32.79 53C31.4133 51.0133 30.1033 49.2233 28.8567 47C19.6867 30.6667 17.23 14.4333 23.4233 10.7567C27.2567 8.43334 33.58 11.6 40.0033 18.27" stroke="#00DF5E" stroke-width="6.66667" stroke-linecap="round" stroke-linejoin="round"/>
<path d="M21.43 51.29C19.09 60.25 19.5633 67.01 23.2967 69.2733C29.24 72.8733 41.2533 62.7467 50.1067 46.5933C51.3067 44.36 52.3833 42.1633 53.3333 40" stroke="#00DF5E" stroke-width="6.66667" stroke-linecap="round" stroke-linejoin="round"/>
<path d="M40 61.7333C46.4267 68.4 52.7233 71.5667 56.5933 69.2433C62.76 65.57 60.33 49.3367 51.15 33C49.87 30.7433 48.56 28.9867 47.2167 27" stroke="#00DF5E" stroke-width="6.66667" stroke-linecap="round" stroke-linejoin="round"/>
<path d="M58.8667 50C67.5733 47.71 73.3333 43.8333 73.3333 39.4133C73.3333 32.38 58.64 26.6666 40.5167 26.6666C38.0267 26.6666 36.2967 26.7633 34 26.9566" stroke="#00DF5E" stroke-width="6.66667" stroke-linecap="round" stroke-linejoin="round"/>
<path d="M40.8667 40.0501H40.8334C40.8 40.4834 40.4334 40.85 39.9667 40.85C39.7435 40.839 39.5329 40.7432 39.378 40.5821C39.2232 40.421 39.1356 40.2068 39.1334 39.9834C39.1334 39.5167 39.5 39.15 39.9334 39.15H39.9C40.3334 39.1167 40.7334 39.5167 40.7334 39.95M26.6667 40C27.6167 37.8 28.69 35.6401 29.8934 33.4067C38.7167 17.2601 50.7367 7.10672 56.7134 10.7367C60.4134 13.0001 60.92 19.7567 58.58 28.7134L26.6667 40Z" stroke="#00DF5E" stroke-width="6.66667" stroke-linecap="round" stroke-linejoin="round"/>
</svg>
