<svg width="80" height="80" viewBox="0 0 80 80" fill="none" xmlns="http://www.w3.org/2000/svg">
<g clip-path="url(#clip0_46307_759)">
<path d="M55.4333 55.21C58.3833 54.9033 60.6233 52.3333 60.5233 49.25C60.4735 47.768 59.8523 46.3627 58.7899 45.3282C57.7275 44.2938 56.3061 43.7103 54.8233 43.7H54.6167C51.46 43.8 49.0167 46.4733 49.1167 49.66C49.2233 51.2033 49.8333 52.5366 50.75 53.46C47.2867 60.35 41.9933 65.3833 34.05 69.5966C28.6567 72.4766 23.0567 73.5033 17.46 72.7833C12.8767 72.1666 9.31334 70.11 7.07334 66.72C3.81667 61.6866 3.51334 56.2366 6.26 50.79C8.19334 46.8866 11.25 44.0066 13.1833 42.57C12.7767 41.2333 12.1667 38.97 11.86 37.3266C-2.90333 48.12 -1.37333 62.7133 3.1 69.6C6.46 74.74 13.28 77.9266 20.8167 77.9266C22.85 77.9266 24.8867 77.72 26.9233 77.2066C39.9567 74.64 49.83 66.8266 55.43 55.2133L55.4333 55.21ZM73.35 42.4666C65.6133 33.32 54.21 28.2833 41.18 28.2833H39.55C39.0858 27.358 38.3738 26.5798 37.4933 26.0354C36.6129 25.491 35.5985 25.2018 34.5633 25.2H34.3567C31.2033 25.3033 28.7567 27.9766 28.86 31.1633C28.96 34.2466 31.5067 36.71 34.56 36.71H34.7667C35.8419 36.6543 36.8798 36.2972 37.7617 35.6794C38.6435 35.0617 39.3337 34.2082 39.7533 33.2166H41.5867C49.3233 33.2166 56.6533 35.4766 63.27 39.8966C68.36 43.29 72.0267 47.7066 74.06 53.0533C75.7933 57.3666 75.6933 61.58 73.86 65.18C71.0067 70.6266 66.2233 73.6066 59.91 73.6066C55.84 73.6066 51.97 72.3733 49.9333 71.4466C48.4679 72.7539 46.9394 73.9887 45.3533 75.1466C49.73 77.2033 54.21 78.3333 58.4867 78.3333C68.26 78.3333 75.4867 72.8866 78.2367 67.44C81.1867 61.48 80.9833 51.2033 73.35 42.4666ZM21.6333 56.9566C21.7333 60.04 24.28 62.5066 27.3333 62.5066H27.5367C30.6933 62.4066 33.1367 59.7333 33.0367 56.5466C32.9868 55.0646 32.3656 53.6593 31.3032 52.6249C30.2408 51.5904 28.8195 51.007 27.3367 50.9966H27.13C26.9267 50.9966 26.62 50.9966 26.4167 51.0966C22.2433 44.11 20.5133 36.5066 21.1233 28.2833C21.53 22.1166 23.5667 16.7733 27.13 12.3533C30.0833 8.55329 35.7833 6.70329 39.6533 6.59996C50.4433 6.39329 55.0233 19.96 55.33 25.4066C56.6533 25.7133 58.8933 26.4333 60.42 26.9466C59.1967 10.3 49.02 1.66663 39.2433 1.66663C30.0833 1.66663 21.6333 8.34663 18.2733 18.2133C13.59 31.3666 16.6433 44.0066 22.3467 53.9766C21.8367 54.6966 21.53 55.8266 21.6333 56.9566V56.9566Z" fill="#4ECB71"/>
</g>
<defs>
<clipPath id="clip0_46307_759">
<rect width="80" height="80" fill="white"/>
</clipPath>
</defs>
</svg>
