<svg width="80" height="80" viewBox="0 0 80 80" fill="none" xmlns="http://www.w3.org/2000/svg">
<g clip-path="url(#clip0_46301_760)">
<path d="M37.73 55.365C37.6925 55.44 37.655 55.5 37.73 55.365V55.365ZM68.87 44.49C66.355 44.49 63.875 45.065 61.62 46.1775C60.8825 44.69 60.12 43.39 59.995 42.415C59.845 41.2775 59.6825 40.6025 59.8575 39.2525C60.0325 37.9025 60.82 35.99 60.8075 35.8525C60.795 35.715 60.6325 35.0275 59.02 35.015C57.4075 35.0025 56.02 35.3275 55.8575 35.7525C55.5722 36.529 55.3506 37.3274 55.195 38.14C54.9075 39.6025 51.9725 44.8275 50.31 47.5525C49.76 46.49 49.2975 45.5525 49.1975 44.8025C49.0475 43.665 48.885 42.99 49.06 41.64C49.235 40.29 50.0225 38.3775 50.01 38.24C49.9975 38.1025 49.835 37.415 48.225 37.4025C46.615 37.39 45.225 37.715 45.0625 38.14C44.9 38.565 44.725 39.565 44.4 40.5275C44.075 41.49 40.1625 50.19 39.14 52.4525C38.615 53.6025 38.165 54.5275 37.84 55.1525C37.79 55.2525 37.7525 55.315 37.7275 55.365C37.765 55.3025 37.79 55.24 37.79 55.265C37.515 55.8025 37.3525 56.1025 37.3525 56.1025V56.115C37.14 56.515 36.9025 56.8775 36.79 56.8775C36.715 56.8775 36.5525 55.8275 36.8275 54.39C37.415 51.365 38.8025 46.665 38.79 46.5025C38.7775 46.415 39.0525 45.6025 37.8775 45.165C36.74 44.7525 36.3275 45.44 36.2275 45.44C36.1275 45.44 36.0525 45.69 36.0525 45.69C36.0525 45.69 37.315 40.39 33.6275 40.39C31.3275 40.39 28.1275 42.915 26.555 45.2025C25.5675 45.74 23.43 46.9025 21.18 48.14L18.5925 49.565C18.53 49.5025 18.48 49.44 18.4175 49.3775C13.9425 44.6025 5.6825 41.2275 6.0325 34.815C6.1575 32.4775 6.97 26.34 21.9175 18.89C34.1675 12.79 43.96 14.465 45.6475 18.19C48.0725 23.5025 40.41 33.39 27.69 34.815C22.84 35.3525 20.2925 33.4775 19.655 32.7775C18.9925 32.04 18.8925 32.0025 18.6425 32.14C18.23 32.365 18.4925 33.015 18.6425 33.4025C19.0175 34.39 20.58 36.14 23.2425 37.015C25.58 37.7775 31.265 38.2025 38.1375 35.54C45.86 32.565 51.8725 24.2775 50.1075 17.34C48.3125 10.29 36.6225 7.97746 25.57 11.9025C18.9825 14.24 11.86 17.915 6.7375 22.7025C0.650001 28.4025 -0.322499 33.365 0.077501 35.44C1.5025 42.8025 11.65 47.6025 15.71 51.1525L15.1475 51.465C13.11 52.4775 5.375 56.5275 3.4375 60.8025C1.25 65.6525 3.8 69.1275 5.4725 69.6025C10.6975 71.0525 16.045 68.44 18.92 64.1525C21.795 59.865 21.445 54.265 20.12 51.715C20.1075 51.6775 20.0825 51.6525 20.07 51.615C21.5699 50.7265 23.0826 49.8598 24.6075 49.015C24.1075 50.365 23.745 51.99 23.5575 54.34C23.3325 57.09 24.47 60.6525 25.945 62.0525C26.595 62.665 27.38 62.6775 27.87 62.6775C29.595 62.6775 30.37 61.2525 31.2325 59.5525C32.295 57.4775 33.2325 55.065 33.2325 55.065C33.2325 55.065 32.0575 61.59 35.27 61.59C36.445 61.59 37.62 60.0775 38.145 59.3025V59.315C38.145 59.315 38.17 59.265 38.2325 59.165C38.3575 58.9775 38.42 58.865 38.42 58.865V58.8275C38.895 58.015 39.9325 56.1525 41.495 53.0775C43.52 49.1025 45.455 44.14 45.455 44.14C45.6425 45.23 45.9025 46.3075 46.23 47.365C46.58 48.5525 47.3175 49.8525 47.905 51.115C47.43 51.765 47.1425 52.14 47.1425 52.14C47.1425 52.15 47.1475 52.1575 47.155 52.165C46.78 52.665 46.355 53.2025 45.9175 53.7275C44.32 55.6275 42.4175 57.8025 42.1675 58.4275C41.8675 59.165 41.9425 59.715 42.5175 60.14C42.9425 60.465 43.6925 60.515 44.48 60.4525C45.9175 60.3525 46.93 60.0025 47.4175 59.7775C48.3167 59.4553 49.1665 59.0093 49.9425 58.4525C51.505 57.3025 52.455 55.6525 52.3675 53.4775C52.3175 52.2775 51.93 51.0775 51.455 49.9525C51.5925 49.7525 51.7425 49.54 51.88 49.3275C53.5067 46.9003 54.9723 44.369 56.2675 41.75C56.455 42.84 56.7125 43.9175 57.0425 44.975C57.3425 45.9875 57.93 47.1 58.4675 48.1875C56.1425 50.075 54.705 52.2625 54.2075 53.7C53.2825 56.3625 54.0075 57.5625 55.37 57.8375C55.9825 57.9625 56.8575 57.675 57.5075 57.4C58.4725 57.0775 59.3825 56.61 60.205 56.0125C61.7675 54.8625 63.28 53.25 63.1775 51.0625C63.14 50.075 62.865 49.0875 62.5025 48.1375C64.465 47.3125 67.015 46.8625 70.265 47.2375C77.225 48.05 78.5875 52.4 78.325 54.2125C78.0625 56.025 76.6 57.0375 76.1125 57.3375C75.625 57.6375 75.475 57.75 75.5125 57.975C75.575 58.3 75.8 58.2875 76.2125 58.2125C76.7875 58.1125 79.8625 56.7375 80 53.375C80.2 49.125 76.1125 44.45 68.875 44.4875L68.87 44.49ZM15.2225 62.5775C12.9225 65.09 9.7 66.04 8.3125 65.24C6.825 64.375 7.4125 60.6775 10.2475 58C11.9725 56.375 14.1975 54.875 15.6725 53.95C16.01 53.75 16.4975 53.45 17.0975 53.0875C17.1463 53.0562 17.1963 53.027 17.2475 53C17.36 52.925 17.485 52.8625 17.61 52.7875C18.645 56.5875 17.6475 59.9375 15.2225 62.575V62.5775ZM32.0175 51.1525C31.2175 53.115 29.5325 58.115 28.505 57.8525C27.63 57.6275 27.0925 53.815 28.33 50.065C28.955 48.1775 30.28 45.9275 31.0675 45.0525C32.33 43.64 33.7175 43.19 34.0425 43.7525C34.48 44.49 32.5175 49.9275 32.0175 51.1525ZM45.8925 57.7775C45.555 57.9525 45.2425 58.065 45.0925 57.9775C44.98 57.915 45.23 57.6775 45.23 57.6775C45.23 57.6775 46.9675 55.815 47.655 54.965C48.055 54.465 48.5175 53.8775 49.0175 53.2275C49.0175 53.29 49.03 53.3525 49.03 53.4275C49.015 55.665 46.865 57.1775 45.89 57.7775H45.8925ZM56.5925 55.34C56.3425 55.165 56.38 54.5775 57.2175 52.7525C57.5425 52.04 58.2925 50.84 59.5925 49.69C59.74 50.125 59.82 50.58 59.83 51.04C59.8175 53.8525 57.805 54.9025 56.5925 55.34V55.34Z" fill="#4ECB71"/>
</g>
<defs>
<clipPath id="clip0_46301_760">
<rect width="80" height="80" fill="white"/>
</clipPath>
</defs>
</svg>
