<svg width="80" height="80" viewBox="0 0 80 80" fill="none" xmlns="http://www.w3.org/2000/svg">
<path d="M60 52.5V22.5H55V57.5H75V52.5H60Z" fill="#00DF5E"/>
<path d="M45 22.5H35C33.6739 22.5 32.4021 23.0268 31.4645 23.9645C30.5268 24.9021 30 26.1739 30 27.5V52.5C30 53.8261 30.5268 55.0979 31.4645 56.0355C32.4021 56.9732 33.6739 57.5 35 57.5H37.5V62.5C37.5 63.8261 38.0268 65.0979 38.9645 66.0355C39.9021 66.9732 41.1739 67.5 42.5 67.5H47.5V62.5H42.5V57.5H45C46.3261 57.5 47.5979 56.9732 48.5355 56.0355C49.4732 55.0979 50 53.8261 50 52.5V27.5C50 26.1739 49.4732 24.9021 48.5355 23.9645C47.5979 23.0268 46.3261 22.5 45 22.5ZM35 52.5V27.5H45V52.5H35Z" fill="#00DF5E"/>
<path d="M20 57.5H5V52.5H20V42.5H10C8.67392 42.5 7.40215 41.9732 6.46447 41.0355C5.52678 40.0979 5 38.8261 5 37.5V27.5C5 26.1739 5.52678 24.9021 6.46447 23.9645C7.40215 23.0268 8.67392 22.5 10 22.5H25V27.5H10V37.5H20C21.3261 37.5 22.5979 38.0268 23.5355 38.9645C24.4732 39.9021 25 41.1739 25 42.5V52.5C25 53.8261 24.4732 55.0979 23.5355 56.0355C22.5979 56.9732 21.3261 57.5 20 57.5Z" fill="#00DF5E"/>
</svg>
