<svg width="80" height="80" viewBox="0 0 80 80" fill="none" xmlns="http://www.w3.org/2000/svg">
<path d="M0 40V80H80V0H0V40ZM64.465 36.81C66.3828 37.2616 68.1258 38.2665 69.4775 39.7C70.2075 40.48 71.3 41.9125 71.3925 42.265C71.4175 42.37 67.9425 44.7 65.8325 46.0025C65.755 46.055 65.4425 45.73 65.1025 45.22C64.075 43.7225 62.9925 43.0725 61.34 42.955C58.9175 42.7975 57.355 44.0625 57.3675 46.185C57.3548 46.7044 57.4707 47.2188 57.705 47.6825C58.24 48.79 59.2425 49.4525 62.34 50.795C68.07 53.255 70.5175 54.8825 72.04 57.1875C73.745 59.765 74.1225 63.88 72.9775 66.9525C71.7025 70.2725 68.55 72.5375 64.1225 73.28C62.755 73.5275 59.5 73.4875 58.0275 73.215C54.8125 72.6425 51.765 71.0525 49.89 68.97C49.1475 68.1625 47.715 66.04 47.8075 65.8975C47.8475 65.845 48.1725 65.6375 48.5375 65.4275L51.5075 63.7075L53.8125 62.3675L54.295 63.0825C54.9725 64.11 56.4425 65.5175 57.33 65.985C59.8825 67.34 63.385 67.145 65.1175 65.595C65.82 65.01 66.2125 64.11 66.16 63.2C66.16 62.275 66.0425 61.86 65.56 61.1675C64.935 60.2825 63.6725 59.5275 60.065 57.965C55.9375 56.18 54.1525 55.0875 52.54 53.33C51.5249 52.1732 50.7741 50.809 50.34 49.3325C50.04 48.2 49.9625 45.36 50.1975 44.2275C51.045 40.23 54.065 37.4575 58.4 36.6375C59.8075 36.365 63.0875 36.4675 64.4675 36.8075L64.465 36.81ZM45.69 40.1575L45.715 43.425H35.2975V73.0225H27.9275V43.425H17.525V40.2225C17.525 38.4375 17.565 36.955 17.615 36.915C17.655 36.8625 23.9825 36.8375 31.665 36.85L45.65 36.89L45.69 40.1575Z" fill="#4ECB71"/>
</svg>
